<mxfile host="Electron" agent="Mozilla/5.0 (Windows NT 10.0; Win64; x64) AppleWebKit/537.36 (KHTML, like Gecko) draw.io/24.7.8 Chrome/128.0.6613.36 Electron/32.0.1 Safari/537.36" version="24.7.8">
  <diagram name="functions" id="s53V9tq3Cu6-tZO0EVcM">
    <mxGraphModel dx="882" dy="677" grid="1" gridSize="10" guides="1" tooltips="1" connect="1" arrows="1" fold="1" page="1" pageScale="1" pageWidth="1169" pageHeight="827" math="0" shadow="0">
      <root>
        <mxCell id="0" />
        <mxCell id="1" parent="0" />
        <mxCell id="BHrfldesXZEGRnvGpgZa-4" style="edgeStyle=orthogonalEdgeStyle;rounded=0;orthogonalLoop=1;jettySize=auto;html=1;exitX=0.25;exitY=1;exitDx=0;exitDy=0;endArrow=none;endFill=0;startArrow=block;startFill=1;fontSize=12;" parent="1" source="BHrfldesXZEGRnvGpgZa-2" edge="1">
          <mxGeometry relative="1" as="geometry">
            <mxPoint x="350.2352941176471" y="440" as="targetPoint" />
          </mxGeometry>
        </mxCell>
        <mxCell id="BHrfldesXZEGRnvGpgZa-6" style="edgeStyle=orthogonalEdgeStyle;shape=connector;rounded=0;orthogonalLoop=1;jettySize=auto;html=1;exitX=0.75;exitY=1;exitDx=0;exitDy=0;strokeColor=default;align=center;verticalAlign=middle;fontFamily=Helvetica;fontSize=12;fontColor=default;labelBackgroundColor=default;startArrow=none;startFill=0;endArrow=block;endFill=1;" parent="1" source="BHrfldesXZEGRnvGpgZa-2" edge="1">
          <mxGeometry relative="1" as="geometry">
            <mxPoint x="410.28571428571433" y="480" as="targetPoint" />
          </mxGeometry>
        </mxCell>
        <mxCell id="BHrfldesXZEGRnvGpgZa-2" value="findMax()" style="rounded=0;whiteSpace=wrap;html=1;fontSize=12;" parent="1" vertex="1">
          <mxGeometry x="320" y="320" width="120" height="60" as="geometry" />
        </mxCell>
        <mxCell id="BHrfldesXZEGRnvGpgZa-5" style="edgeStyle=orthogonalEdgeStyle;shape=connector;rounded=0;orthogonalLoop=1;jettySize=auto;html=1;exitX=0.25;exitY=1;exitDx=0;exitDy=0;strokeColor=default;align=center;verticalAlign=middle;fontFamily=Helvetica;fontSize=12;fontColor=default;labelBackgroundColor=default;startArrow=block;startFill=1;endArrow=none;endFill=0;" parent="1" source="BHrfldesXZEGRnvGpgZa-3" edge="1">
          <mxGeometry relative="1" as="geometry">
            <mxPoint x="510.28571428571433" y="440" as="targetPoint" />
          </mxGeometry>
        </mxCell>
        <mxCell id="UKdfs0ctcegRfAu8cj1a-9" style="edgeStyle=orthogonalEdgeStyle;rounded=0;orthogonalLoop=1;jettySize=auto;html=1;exitX=0.75;exitY=1;exitDx=0;exitDy=0;endArrow=block;endFill=1;fontSize=12;" parent="1" source="BHrfldesXZEGRnvGpgZa-3" edge="1">
          <mxGeometry relative="1" as="geometry">
            <mxPoint x="570" y="480" as="targetPoint" />
          </mxGeometry>
        </mxCell>
        <mxCell id="BHrfldesXZEGRnvGpgZa-3" value="findMin()" style="rounded=0;whiteSpace=wrap;html=1;fontSize=12;" parent="1" vertex="1">
          <mxGeometry x="480" y="320" width="120" height="60" as="geometry" />
        </mxCell>
        <mxCell id="BHrfldesXZEGRnvGpgZa-12" value="items()" style="text;html=1;align=center;verticalAlign=middle;whiteSpace=wrap;rounded=0;fontFamily=Helvetica;fontSize=12;fontColor=default;labelBackgroundColor=default;" parent="1" vertex="1">
          <mxGeometry x="320" y="440" width="60" height="20" as="geometry" />
        </mxCell>
        <mxCell id="BHrfldesXZEGRnvGpgZa-13" value="maximum" style="text;html=1;align=center;verticalAlign=middle;whiteSpace=wrap;rounded=0;fontFamily=Helvetica;fontSize=12;fontColor=default;labelBackgroundColor=default;" parent="1" vertex="1">
          <mxGeometry x="380" y="480" width="60" height="20" as="geometry" />
        </mxCell>
        <mxCell id="BHrfldesXZEGRnvGpgZa-14" value="items()" style="text;html=1;align=center;verticalAlign=middle;whiteSpace=wrap;rounded=0;fontFamily=Helvetica;fontSize=12;fontColor=default;labelBackgroundColor=default;" parent="1" vertex="1">
          <mxGeometry x="480" y="440" width="60" height="20" as="geometry" />
        </mxCell>
        <mxCell id="UKdfs0ctcegRfAu8cj1a-1" style="edgeStyle=orthogonalEdgeStyle;rounded=0;orthogonalLoop=1;jettySize=auto;html=1;exitX=0.25;exitY=1;exitDx=0;exitDy=0;endArrow=none;endFill=0;startArrow=block;startFill=1;fontSize=12;" parent="1" source="UKdfs0ctcegRfAu8cj1a-3" edge="1">
          <mxGeometry relative="1" as="geometry">
            <mxPoint x="350.2352941176471" y="200" as="targetPoint" />
          </mxGeometry>
        </mxCell>
        <mxCell id="UKdfs0ctcegRfAu8cj1a-2" style="edgeStyle=orthogonalEdgeStyle;shape=connector;rounded=0;orthogonalLoop=1;jettySize=auto;html=1;exitX=0.75;exitY=1;exitDx=0;exitDy=0;strokeColor=default;align=center;verticalAlign=middle;fontFamily=Helvetica;fontSize=12;fontColor=default;labelBackgroundColor=default;startArrow=none;startFill=0;endArrow=block;endFill=1;" parent="1" source="UKdfs0ctcegRfAu8cj1a-3" edge="1">
          <mxGeometry relative="1" as="geometry">
            <mxPoint x="410.28571428571433" y="240" as="targetPoint" />
          </mxGeometry>
        </mxCell>
        <mxCell id="UKdfs0ctcegRfAu8cj1a-3" value="findItem()" style="rounded=0;whiteSpace=wrap;html=1;fontSize=12;" parent="1" vertex="1">
          <mxGeometry x="320" y="80" width="120" height="60" as="geometry" />
        </mxCell>
        <mxCell id="UKdfs0ctcegRfAu8cj1a-4" style="edgeStyle=orthogonalEdgeStyle;shape=connector;rounded=0;orthogonalLoop=1;jettySize=auto;html=1;exitX=0.25;exitY=1;exitDx=0;exitDy=0;strokeColor=default;align=center;verticalAlign=middle;fontFamily=Helvetica;fontSize=12;fontColor=default;labelBackgroundColor=default;startArrow=block;startFill=1;endArrow=none;endFill=0;" parent="1" source="UKdfs0ctcegRfAu8cj1a-5" edge="1">
          <mxGeometry relative="1" as="geometry">
            <mxPoint x="510.28571428571433" y="200" as="targetPoint" />
          </mxGeometry>
        </mxCell>
        <mxCell id="UKdfs0ctcegRfAu8cj1a-11" style="edgeStyle=orthogonalEdgeStyle;shape=connector;rounded=0;orthogonalLoop=1;jettySize=auto;html=1;exitX=0.75;exitY=1;exitDx=0;exitDy=0;strokeColor=default;align=center;verticalAlign=middle;fontFamily=Helvetica;fontSize=12;fontColor=default;labelBackgroundColor=default;endArrow=block;endFill=1;" parent="1" source="UKdfs0ctcegRfAu8cj1a-5" edge="1">
          <mxGeometry relative="1" as="geometry">
            <mxPoint x="570" y="240" as="targetPoint" />
          </mxGeometry>
        </mxCell>
        <mxCell id="UKdfs0ctcegRfAu8cj1a-5" value="countItem()" style="rounded=0;whiteSpace=wrap;html=1;fontSize=12;" parent="1" vertex="1">
          <mxGeometry x="480" y="80" width="120" height="60" as="geometry" />
        </mxCell>
        <mxCell id="UKdfs0ctcegRfAu8cj1a-6" value="items()&lt;div style=&quot;font-size: 12px;&quot;&gt;target&lt;/div&gt;" style="text;html=1;align=center;verticalAlign=middle;whiteSpace=wrap;rounded=0;fontFamily=Helvetica;fontSize=12;fontColor=default;labelBackgroundColor=default;" parent="1" vertex="1">
          <mxGeometry x="320" y="200" width="60" height="40" as="geometry" />
        </mxCell>
        <mxCell id="UKdfs0ctcegRfAu8cj1a-7" value="index" style="text;html=1;align=center;verticalAlign=middle;whiteSpace=wrap;rounded=0;fontFamily=Helvetica;fontSize=12;fontColor=default;labelBackgroundColor=default;" parent="1" vertex="1">
          <mxGeometry x="380" y="240" width="60" height="20" as="geometry" />
        </mxCell>
        <mxCell id="UKdfs0ctcegRfAu8cj1a-8" value="&lt;font style=&quot;font-size: 12px;&quot;&gt;items()&lt;/font&gt;&lt;div style=&quot;font-size: 12px;&quot;&gt;&lt;font style=&quot;font-size: 12px;&quot;&gt;target&lt;/font&gt;&lt;/div&gt;" style="text;html=1;align=center;verticalAlign=middle;whiteSpace=wrap;rounded=0;fontFamily=Helvetica;fontSize=12;fontColor=default;labelBackgroundColor=default;" parent="1" vertex="1">
          <mxGeometry x="480" y="200" width="60" height="40" as="geometry" />
        </mxCell>
        <mxCell id="UKdfs0ctcegRfAu8cj1a-10" value="&lt;font style=&quot;font-size: 12px;&quot;&gt;minimum&lt;/font&gt;" style="text;html=1;align=center;verticalAlign=middle;whiteSpace=wrap;rounded=0;fontFamily=Helvetica;fontSize=12;fontColor=default;labelBackgroundColor=default;" parent="1" vertex="1">
          <mxGeometry x="540" y="480" width="60" height="20" as="geometry" />
        </mxCell>
        <mxCell id="UKdfs0ctcegRfAu8cj1a-12" value="&lt;font style=&quot;font-size: 12px;&quot;&gt;count&lt;/font&gt;" style="text;html=1;align=center;verticalAlign=middle;whiteSpace=wrap;rounded=0;fontFamily=Helvetica;fontSize=12;fontColor=default;labelBackgroundColor=default;" parent="1" vertex="1">
          <mxGeometry x="540" y="240" width="60" height="20" as="geometry" />
        </mxCell>
      </root>
    </mxGraphModel>
  </diagram>
</mxfile>
